HIERARCHY
ROOT ui
{
	 OFFSET 0 0 0
	 CHANNELS 3 XPosition YPosition Z Position
	 EndSite
	 {
	 OFFSET 0 -1 0
	 }
}
ROOT li
{
	 OFFSET 0 0 0
	 CHANNELS 3 XPosition YPosition Z Position
	 EndSite
	 {
	 OFFSET 0 -1 0
	 }
}
ROOT ul
{
	 OFFSET 0 0 0
	 CHANNELS 3 XPosition YPosition Z Position
	 EndSite
	 {
	 OFFSET 0 -1 0
	 }
}
ROOT ll
{
	 OFFSET 0 0 0
	 CHANNELS 3 XPosition YPosition Z Position
	 EndSite
	 {
	 OFFSET 0 -1 0
	 }
}
ROOT tt
{
	 OFFSET 0 0 0
	 CHANNELS 3 XPosition YPosition Z Position
	 EndSite
	 {
	 OFFSET 0 -1 0
	 }
}
ROOT tb
{
	 OFFSET 0 0 0
	 CHANNELS 3 XPosition YPosition Z Position
	 EndSite
	 {
	 OFFSET 0 -1 0
	 }
}
ROOT td
{
	 OFFSET 0 0 0
	 CHANNELS 3 XPosition YPosition Z Position
	 EndSite
	 {
	 OFFSET 0 -1 0
	 }
}
ROOT v
{
	 OFFSET 0 0 0
	 CHANNELS 3 XPosition YPosition Z Position
	 EndSite
	 {
	 OFFSET 0 -1 0
	 }
}
ROOT bn
{
	 OFFSET 0 0 0
	 CHANNELS 3 XPosition YPosition Z Position
	 EndSite
	 {
	 OFFSET 0 -1 0
	 }
}
MOTION
Frames: 10
Frame Time: 0.002
-0.0016347030401229858	5.942069888114929E-4	0		0.44326922607421876	-2.301011474609375	0		-1.0398724365234375	-0.04912936019897461	0		-0.8032274780273437	-2.31245703125	0		1.3104111328125	-0.6934524536132812	0		3.19217041015625	0.007113310813903808	0		4.7929775390625	-0.01871330451965332	0		5.539501953125	0.04799479675292969	0		0.0072582921981811524	5.94566162109375	0		
-0.006479362010955811	0.0044825000762939455	0		0.4875469970703125	-2.2990947265625	0		-0.9757894897460937	-0.04971961212158203	0		-0.7711508178710937	-2.3203759765625	0		1.31052978515625	-0.6935781860351562	0		3.198547607421875	0.021986948013305665	0		4.80506884765625	-0.017852880477905272	0		5.53540869140625	0.040233741760253905	0		-0.12746578216552734	5.92719189453125	0		
-0.010455937385559081	0.0013559420108795166	0		0.45674771118164065	-2.300638916015625	0		-1.0547469482421874	-0.05138204574584961	0		-0.7827896118164063	-2.3143916015625	0		1.2986414794921874	-0.6944556884765625	0		3.177512451171875	0.01641787338256836	0		4.80103271484375	-0.023662715911865233	0		5.535490234375	0.04038915634155273	0		-0.010530635833740235	5.93758935546875	0		
-0.017495212554931642	-0.005704386234283447	0		0.48188751220703124	-2.306320068359375	0		-1.0587022705078124	-0.05456992721557617	0		-0.7747470092773437	-2.3248046875	0		1.3046636962890625	-0.70069775390625	0		3.17761279296875	0.016414827346801757	0		4.8011357421875	-0.023563459396362306	0		5.530427734375	0.03263788223266602	0		-0.14322280883789062	5.9180703125	0		
-0.010226744651794434	9.532960057258606E-4	0		0.4401402893066406	-2.30663916015625	0		-1.047614013671875	-0.05705304718017578	0		-0.77244140625	-2.32308935546875	0		1.3048330078125	-0.700818603515625	0		3.17773974609375	0.01640488624572754	0		4.8002451171875	-0.02445680809020996	0		5.53571435546875	0.040664382934570316	0		0.00417238998413086	5.946880859375	0		
0.06790199279785156	-0.0018145689964294434	0		0.4974203186035156	-2.307958251953125	0		-1.043365966796875	-0.05338462066650391	0		-0.8060409545898437	-2.317638671875	0		1.311176513671875	-0.6940618896484375	0		3.18906298828125	0.02416335868835449	0		4.7996943359375	-0.010368066787719727	0		5.54003759765625	0.04869379806518555	0		0.004010451793670654	5.9466884765625	0		
-0.005791561126708984	0.0034927730560302735	0		0.4448592224121094	-2.302052490234375	0		-1.0431524658203124	-0.05362322998046875	0		-0.7677409057617187	-2.319630615234375	0		1.31142236328125	-0.6941814575195312	0		3.1832333984375	0.022259971618652345	0		4.79576513671875	-0.01722930717468262	0		5.54608349609375	0.040668758392333984	0		0.00392060899734497	5.9465029296875	0		
0.06837223815917969	-0.002172321081161499	0		0.4940135498046875	-2.313193115234375	0		-1.053868408203125	-0.05262880325317383	0		-0.7812916870117188	-2.315563720703125	0		1.2996959228515625	-0.6950582275390625	0		3.2154853515625	0.021584842681884767	0		4.8008837890625	-0.024286224365234376	0		5.54634130859375	0.040745426177978515	0		-0.01129158592224121	5.9366279296875	0		
-0.009289167404174804	2.2436800599098206E-4	0		0.4306451721191406	-2.301061767578125	0		-1.0535634765625	-0.052842540740966795	0		-0.78293310546875	-2.317725830078125	0		1.30002734375	-0.6951749267578125	0		3.177955322265625	0.030307661056518553	0		4.80632666015625	-0.0173602294921875	0		5.55148095703125	0.03270517730712891	0		-0.011233619689941406	5.93645751953125	0		
-0.008954395294189453	6.268200278282166E-5	0		0.47093515014648435	-2.308007080078125	0		-1.046328369140625	-0.058181182861328125	0		-0.85435986328125	-2.3094755859375	0		1.309325439453125	-0.69846875	0		3.178288818359375	0.030261405944824217	0		4.80152294921875	-0.02424601173400879	0		5.5369775390625	0.041043571472167965	0		0.005063136100769043	5.9449736328125	0		
